<svg width="1200" height="900" viewBox="0 0 1200 900" fill="none" xmlns="http://www.w3.org/2000/svg">
  <rect width="1200" height="900" rx="48" fill="#F5ECE1"/>
  <rect x="90" y="90" width="1020" height="720" rx="42" fill="#FFF8EF" stroke="#DCC6B4" stroke-width="3"/>
  <rect x="156" y="168" width="888" height="148" rx="30" fill="#FFFFFF" stroke="#E2D0BF" stroke-width="3"/>
  <rect x="156" y="376" width="888" height="148" rx="30" fill="#FFF7EC" stroke="#E2D0BF" stroke-width="3"/>
  <rect x="156" y="584" width="888" height="148" rx="30" fill="#FFFFFF" stroke="#E2D0BF" stroke-width="3"/>
  <circle cx="238" cy="242" r="46" fill="#F4C46B"/>
  <rect x="208" y="446" width="62" height="74" rx="18" fill="#6FA391"/>
  <rect x="208" y="652" width="62" height="74" rx="18" fill="#D66C53"/>
  <path d="M320 242H452" stroke="#2E3834" stroke-width="16" stroke-linecap="round"/>
  <path d="M320 448H452" stroke="#2E3834" stroke-width="16" stroke-linecap="round"/>
  <path d="M320 654H452" stroke="#2E3834" stroke-width="16" stroke-linecap="round"/>
  <path d="M320 278H528" stroke="#B8A18C" stroke-width="14" stroke-linecap="round"/>
  <path d="M320 484H528" stroke="#B8A18C" stroke-width="14" stroke-linecap="round"/>
  <path d="M320 690H528" stroke="#B8A18C" stroke-width="14" stroke-linecap="round"/>
  <path d="M920 242L972 242" stroke="#B79C84" stroke-width="8" stroke-linecap="round"/>
  <path d="M972 242L956 226" stroke="#B79C84" stroke-width="8" stroke-linecap="round"/>
  <path d="M972 242L956 258" stroke="#B79C84" stroke-width="8" stroke-linecap="round"/>
  <path d="M920 448L972 448" stroke="#B79C84" stroke-width="8" stroke-linecap="round"/>
  <path d="M972 448L956 432" stroke="#B79C84" stroke-width="8" stroke-linecap="round"/>
  <path d="M972 448L956 464" stroke="#B79C84" stroke-width="8" stroke-linecap="round"/>
  <text x="320" y="228" fill="#2E3834" font-family="Fraunces, Georgia, serif" font-size="34" font-weight="600">Wake-up and breakfast</text>
  <text x="320" y="434" fill="#2E3834" font-family="Fraunces, Georgia, serif" font-size="34" font-weight="600">Bath time and dressing</text>
  <text x="320" y="640" fill="#2E3834" font-family="Fraunces, Georgia, serif" font-size="34" font-weight="600">Books and bedtime recap</text>
</svg>
