<svg width="960" height="720" viewBox="0 0 960 720" fill="none" xmlns="http://www.w3.org/2000/svg">
  <rect width="960" height="720" rx="56" fill="#F5EFE6"/>
  <circle cx="190" cy="166" r="108" fill="#F2D3C0"/>
  <circle cx="786" cy="164" r="92" fill="#D7E7DC"/>
  <rect x="126" y="138" width="708" height="444" rx="42" fill="#FFF9F4" stroke="#DCC8B8" stroke-width="4"/>
  <rect x="204" y="240" width="560" height="244" rx="34" fill="#FFF3E6"/>
  <path d="M286 450H654L626 310H314L286 450Z" fill="#FEFBF8" stroke="#E1D0C2" stroke-width="6"/>
  <path d="M350 310L378 258H554L582 310" stroke="#21364D" stroke-width="14" stroke-linecap="round"/>
  <circle cx="354" cy="498" r="28" fill="#21364D" fill-opacity="0.16"/>
  <circle cx="590" cy="498" r="28" fill="#21364D" fill-opacity="0.16"/>
  <circle cx="382" cy="352" r="34" fill="#E88767"/>
  <circle cx="476" cy="350" r="34" fill="#F4C667"/>
  <circle cx="572" cy="350" r="34" fill="#5C9B8B"/>
  <path d="M330 408C370 382 420 368 474 368C532 368 586 384 626 414" stroke="#5C9B8B" stroke-width="16" stroke-linecap="round" opacity="0.4"/>
  <circle cx="234" cy="250" r="20" fill="#F4C667"/>
  <circle cx="744" cy="250" r="18" fill="#E88767" fill-opacity="0.72"/>
  <circle cx="780" cy="290" r="10" fill="#21364D" fill-opacity="0.18"/>
  <path d="M228 532C300 492 370 474 446 474C520 474 590 492 664 530" stroke="#21364D" stroke-opacity="0.12" stroke-width="18" stroke-linecap="round"/>
</svg>
