<svg width="960" height="720" viewBox="0 0 960 720" fill="none" xmlns="http://www.w3.org/2000/svg">
  <rect width="960" height="720" rx="56" fill="#F8F0E6"/>
  <circle cx="170" cy="160" r="112" fill="#F2D3C0"/>
  <circle cx="788" cy="154" r="92" fill="#D7E7DC"/>
  <rect x="128" y="136" width="704" height="448" rx="42" fill="#FFF9F4" stroke="#DCC8B8" stroke-width="4"/>
  <circle cx="468" cy="362" r="168" fill="#FFF4EA" stroke="#E3D0C1" stroke-width="6"/>
  <circle cx="468" cy="362" r="122" fill="#FEFBF8"/>
  <path d="M394 394C424 334 486 300 548 300C602 300 650 326 676 370" stroke="#E88767" stroke-width="22" stroke-linecap="round"/>
  <path d="M326 300C336 274 366 262 388 274C406 284 410 310 396 330L362 382" stroke="#F4C667" stroke-width="18" stroke-linecap="round"/>
  <path d="M608 254L654 432" stroke="#5C9B8B" stroke-width="18" stroke-linecap="round"/>
  <path d="M662 252L708 430" stroke="#5C9B8B" stroke-width="18" stroke-linecap="round"/>
  <path d="M714 244L760 422" stroke="#5C9B8B" stroke-width="18" stroke-linecap="round"/>
  <rect x="186" y="430" width="198" height="96" rx="30" fill="#21364D" fill-opacity="0.08"/>
  <path d="M230 476C260 452 300 450 330 474" stroke="#E88767" stroke-width="12" stroke-linecap="round"/>
  <circle cx="210" cy="248" r="18" fill="#F4C667"/>
  <circle cx="756" cy="244" r="16" fill="#5C9B8B" fill-opacity="0.74"/>
  <circle cx="804" cy="286" r="10" fill="#21364D" fill-opacity="0.18"/>
</svg>
