<svg width="960" height="720" viewBox="0 0 960 720" fill="none" xmlns="http://www.w3.org/2000/svg">
  <rect width="960" height="720" rx="56" fill="#F7EFE5"/>
  <circle cx="170" cy="162" r="108" fill="#D6E4D7"/>
  <circle cx="786" cy="550" r="124" fill="#F4D58A"/>
  <rect x="132" y="140" width="696" height="440" rx="42" fill="#FFF9F4" stroke="#DCC8B8" stroke-width="4"/>
  <rect x="190" y="206" width="210" height="308" rx="34" fill="#FFF2E8"/>
  <rect x="430" y="206" width="158" height="140" rx="28" fill="#F2F6F2"/>
  <rect x="614" y="206" width="156" height="140" rx="28" fill="#FFF2E8"/>
  <rect x="430" y="374" width="340" height="140" rx="28" fill="#FEFBF8" stroke="#E2D1C4" stroke-width="4"/>
  <path d="M260 262H330" stroke="#E88767" stroke-width="14" stroke-linecap="round"/>
  <path d="M260 312H330" stroke="#5C9B8B" stroke-width="14" stroke-linecap="round"/>
  <path d="M260 362H308" stroke="#F4C667" stroke-width="14" stroke-linecap="round"/>
  <path d="M478 438C514 404 570 400 610 430" stroke="#E88767" stroke-width="18" stroke-linecap="round"/>
  <path d="M590 430L644 376" stroke="#E88767" stroke-width="16" stroke-linecap="round"/>
  <path d="M642 376L706 396" stroke="#E88767" stroke-width="16" stroke-linecap="round"/>
  <circle cx="504" cy="266" r="24" fill="#5C9B8B"/>
  <circle cx="670" cy="266" r="24" fill="#E88767"/>
  <circle cx="718" cy="302" r="12" fill="#21364D" fill-opacity="0.18"/>
  <circle cx="242" cy="526" r="14" fill="#E88767" fill-opacity="0.56"/>
</svg>
