<svg width="960" height="720" viewBox="0 0 960 720" fill="none" xmlns="http://www.w3.org/2000/svg">
  <rect width="960" height="720" rx="56" fill="#F8EFE5"/>
  <circle cx="198" cy="170" r="118" fill="#F2CDBF"/>
  <circle cx="772" cy="146" r="92" fill="#D6E3D8"/>
  <circle cx="766" cy="566" r="130" fill="#F4D58A"/>
  <rect x="122" y="146" width="716" height="430" rx="42" fill="#FFF9F4" stroke="#DCC8B8" stroke-width="4"/>
  <rect x="182" y="248" width="286" height="228" rx="34" fill="#FFF4EA"/>
  <rect x="492" y="216" width="286" height="276" rx="34" fill="#F5F0EA"/>
  <circle cx="308" cy="364" r="78" fill="#E88767"/>
  <rect x="238" y="430" width="140" height="70" rx="35" fill="#21364D" fill-opacity="0.12"/>
  <circle cx="626" cy="344" r="86" fill="#5C9B8B"/>
  <rect x="548" y="418" width="158" height="78" rx="39" fill="#21364D" fill-opacity="0.12"/>
  <path d="M318 302C354 274 390 280 420 314" stroke="#FFF7F0" stroke-width="18" stroke-linecap="round"/>
  <path d="M600 314C632 286 678 290 712 328" stroke="#EFF8F3" stroke-width="18" stroke-linecap="round"/>
  <path d="M454 180C490 138 548 130 596 164" stroke="#E88767" stroke-width="16" stroke-linecap="round"/>
  <path d="M566 166L638 138" stroke="#E88767" stroke-width="16" stroke-linecap="round"/>
  <circle cx="486" cy="196" r="22" fill="#E88767"/>
  <circle cx="616" cy="142" r="18" fill="#E88767"/>
  <circle cx="714" cy="204" r="20" fill="#5C9B8B"/>
  <circle cx="770" cy="246" r="14" fill="#5C9B8B" fill-opacity="0.64"/>
  <circle cx="198" cy="544" r="18" fill="#E88767" fill-opacity="0.56"/>
  <circle cx="240" cy="586" r="10" fill="#21364D" fill-opacity="0.18"/>
</svg>
