<svg width="1200" height="900" viewBox="0 0 1200 900" fill="none" xmlns="http://www.w3.org/2000/svg">
  <rect width="1200" height="900" rx="48" fill="#F6EDE3"/>
  <circle cx="192" cy="148" r="128" fill="#F0BA8B" fill-opacity="0.45"/>
  <circle cx="1030" cy="172" r="112" fill="#9EB8AF" fill-opacity="0.4"/>
  <circle cx="965" cy="736" r="164" fill="#F3D88A" fill-opacity="0.42"/>
  <rect x="118" y="112" width="964" height="676" rx="38" fill="#FFF9F2" stroke="#DCC7B5" stroke-width="3"/>
  <rect x="164" y="170" width="268" height="240" rx="30" fill="#FFFFFF" stroke="#E2D2C1" stroke-width="3"/>
  <rect x="466" y="170" width="268" height="240" rx="30" fill="#FFF8EF" stroke="#E2D2C1" stroke-width="3"/>
  <rect x="768" y="170" width="268" height="240" rx="30" fill="#FFFFFF" stroke="#E2D2C1" stroke-width="3"/>
  <rect x="164" y="444" width="872" height="278" rx="32" fill="#FFF7EC" stroke="#E2D2C1" stroke-width="3"/>
  <rect x="204" y="478" width="230" height="88" rx="20" fill="#FCE7DA"/>
  <rect x="486" y="478" width="230" height="88" rx="20" fill="#E4F0EA"/>
  <rect x="768" y="478" width="230" height="88" rx="20" fill="#FAEFC7"/>
  <rect x="204" y="594" width="794" height="88" rx="20" fill="#FFFFFF" stroke="#E2D2C1" stroke-width="2"/>
  <circle cx="218" cy="214" r="28" fill="#D66C53"/>
  <circle cx="520" cy="214" r="28" fill="#5F9D8A"/>
  <circle cx="822" cy="214" r="28" fill="#D8A94C"/>
  <path d="M258 258H338" stroke="#2E3834" stroke-width="16" stroke-linecap="round"/>
  <path d="M560 258H640" stroke="#2E3834" stroke-width="16" stroke-linecap="round"/>
  <path d="M862 258H942" stroke="#2E3834" stroke-width="16" stroke-linecap="round"/>
  <path d="M236 318H360" stroke="#B8A18C" stroke-width="14" stroke-linecap="round"/>
  <path d="M538 318H662" stroke="#B8A18C" stroke-width="14" stroke-linecap="round"/>
  <path d="M840 318H964" stroke="#B8A18C" stroke-width="14" stroke-linecap="round"/>
  <path d="M236 352H320" stroke="#D1B7A0" stroke-width="14" stroke-linecap="round"/>
  <path d="M538 352H622" stroke="#D1B7A0" stroke-width="14" stroke-linecap="round"/>
  <path d="M840 352H924" stroke="#D1B7A0" stroke-width="14" stroke-linecap="round"/>
  <text x="202" y="245" fill="#2E3834" font-family="Manrope, Arial, sans-serif" font-size="34" font-weight="700">0-12 months</text>
  <text x="504" y="245" fill="#2E3834" font-family="Manrope, Arial, sans-serif" font-size="34" font-weight="700">12-24 months</text>
  <text x="806" y="245" fill="#2E3834" font-family="Manrope, Arial, sans-serif" font-size="34" font-weight="700">24-36 months</text>
  <text x="222" y="533" fill="#2E3834" font-family="Manrope, Arial, sans-serif" font-size="28" font-weight="700">See what is typical</text>
  <text x="504" y="533" fill="#2E3834" font-family="Manrope, Arial, sans-serif" font-size="28" font-weight="700">Try one routine</text>
  <text x="786" y="533" fill="#2E3834" font-family="Manrope, Arial, sans-serif" font-size="28" font-weight="700">Organize concern</text>
  <text x="232" y="647" fill="#2E3834" font-family="Fraunces, Georgia, serif" font-size="46" font-weight="600">Choose an age. Pick the loudest worry. Get one next step.</text>
</svg>
